%
T1C.5F095S300
X039497Y028956
X038100Y033528
X044831Y036576
X041275Y031496
X057404Y030988
X059690Y033528
X064770Y041910
X075184Y030988
T2C.9F197S550
X033274Y027432
X033274Y029972
X032632Y032512
X032632Y034544
X032766Y036576
X032766Y044076
X036830Y044076
X038862Y044076
X034798Y044076
X040894Y044076
X038862Y036576
X034798Y036576
X036830Y036576
X040894Y036576
X040132Y034544
X040132Y032512
X035814Y029972
X040894Y029972
X038354Y029972
X040894Y027432
X035814Y027432
X038354Y027432
X043434Y027432
X045974Y027432
X043434Y029972
X045974Y029972
X043554Y032512
X043554Y034544
X052836Y043180
X052836Y038100
X051054Y034544
X053594Y034544
X053714Y032512
X051054Y032512
X053594Y029972
X051054Y029972
X048514Y029972
X053594Y027432
X048514Y027432
X051054Y027432
X056134Y027432
X058674Y027432
X056134Y029972
X058674Y029972
X059691Y038100
X055121Y038100
X057406Y038100
X056264Y040640
X053979Y040640
X058549Y040640
X055121Y043180
X059691Y043180
X057406Y043180
X061976Y043180
X063119Y040640
X060834Y040640
X061976Y038100
X063754Y034544
X061094Y034544
X061214Y032512
X063874Y032512
X066294Y029972
X061214Y029972
X063754Y029972
X061214Y027432
X063754Y027432
X066294Y027432
X068834Y027432
X071374Y027432
X068834Y029972
X071374Y029972
X071374Y032512
X071254Y034544
X074422Y044076
X076454Y044076
X078740Y044076
X076454Y036576
X074422Y036576
X078740Y036576
X074542Y034544
X074422Y032512
X073914Y029972
X078994Y029972
X076454Y029972
X078994Y027432
X076454Y027432
X073914Y027432
X081534Y027432
X081534Y029972
X081922Y032512
X082042Y034544
X083058Y036576
X081026Y036576
X083058Y044076
X081026Y044076
T3C2.75F069S658
X028404Y028572
X086404Y028572
T4C3.4F035S794
X045171Y040640
X070161Y040640
M30
