*
*
G04 PADS 9.4.1 Build Number: 494907 generated Gerber (RS-274-X) file*
G04 PC Version=2.1*
*
%IN "VGA_blz.pcb"*%
*
%MOMM*%
*
%FSDAX33Y33*%
*
*
*
*
G04 PC Standard Apertures*
*
*
G04 Thermal Relief Aperture macro.*
%AMTER*
1,1,$1,0,0*
1,0,$1-$2,0,0*
21,0,$3,$4,0,0,45*
21,0,$3,$4,0,0,135*
%
*
*
G04 Annular Aperture macro.*
%AMANN*
1,1,$1,0,0*
1,0,$2,0,0*
%
*
*
G04 Odd Aperture macro.*
%AMODD*
1,1,$1,0,0*
1,0,$1-0.005,0,0*
%
*
*
G04 PC Custom Aperture Macros*
*
*
*
*
*
*
G04 PC Aperture Table*
*
%ADD010C,0.0254*%
%ADD011C,0.254*%
%ADD072R,1.778X1.778*%
%ADD073C,1.778*%
%ADD082C,5.254*%
%ADD083R,1.016X1.2192*%
%ADD084R,1.2192X1.016*%
*
*
*
*
G04 PC Circuitry*
G04 Layer Name VGA_blz.pcb - circuitry*
%LPD*%
*
*
G04 PC Custom Flashes*
G04 Layer Name VGA_blz.pcb - flashes*
%LPD*%
*
*
G04 PC Circuitry*
G04 Layer Name VGA_blz.pcb - circuitry*
%LPD*%
*
G54D10*
G54D11*
G01X025527Y025527D02*
X089535Y025527D01*
X089535Y046101*
X025527Y046101*
X025527Y025527*
G54D72*
X062103Y038227D03*
X033401Y027559D03*
G54D73*
X059818Y038227D03*
X057533Y038227D03*
X055248Y038227D03*
X052963Y038227D03*
X063245Y040767D03*
X060960Y040767D03*
X058675Y040767D03*
X056390Y040767D03*
X054105Y040767D03*
X062103Y043307D03*
X059818Y043307D03*
X057533Y043307D03*
X055248Y043307D03*
X052963Y043307D03*
X036957Y036703D03*
X036957Y044203D03*
X032893Y036703D03*
X032893Y044203D03*
X040259Y034671D03*
X032759Y034671D03*
X076581Y036703D03*
X076581Y044203D03*
X038989Y036703D03*
X038989Y044203D03*
X034925Y036703D03*
X034925Y044203D03*
X083185Y036703D03*
X083185Y044203D03*
X081153Y036703D03*
X081153Y044203D03*
X074549Y032639D03*
X082049Y032639D03*
X061341Y032639D03*
X053841Y032639D03*
X051181Y032639D03*
X043681Y032639D03*
X051181Y034671D03*
X043681Y034671D03*
X063881Y034671D03*
X071381Y034671D03*
X053721Y034671D03*
X061221Y034671D03*
X074549Y036703D03*
X074549Y044203D03*
X071501Y032639D03*
X064001Y032639D03*
X041021Y036703D03*
X041021Y044203D03*
X078867Y036703D03*
X078867Y044203D03*
X082169Y034671D03*
X074669Y034671D03*
X040259Y032639D03*
X032759Y032639D03*
X033401Y030099D03*
X035941Y027559D03*
X035941Y030099D03*
X038481Y027559D03*
X038481Y030099D03*
X041021Y027559D03*
X041021Y030099D03*
X043561Y027559D03*
X043561Y030099D03*
X046101Y027559D03*
X046101Y030099D03*
X048641Y027559D03*
X048641Y030099D03*
X051181Y027559D03*
X051181Y030099D03*
X053721Y027559D03*
X053721Y030099D03*
X056261Y027559D03*
X056261Y030099D03*
X058801Y027559D03*
X058801Y030099D03*
X061341Y027559D03*
X061341Y030099D03*
X063881Y027559D03*
X063881Y030099D03*
X066421Y027559D03*
X066421Y030099D03*
X068961Y027559D03*
X068961Y030099D03*
X071501Y027559D03*
X071501Y030099D03*
X074041Y027559D03*
X074041Y030099D03*
X076581Y027559D03*
X076581Y030099D03*
X079121Y027559D03*
X079121Y030099D03*
X081661Y027559D03*
X081661Y030099D03*
G54D82*
X070288Y040767D03*
X045298Y040767D03*
G54D83*
X081153Y039725D03*
X081153Y041300D03*
X038989Y039725D03*
X038989Y041300D03*
X034925Y039725D03*
X034925Y041300D03*
X083185Y039725D03*
X083185Y041300D03*
X078867Y039725D03*
X078867Y041300D03*
X076581Y039725D03*
X076581Y041300D03*
X074549Y039725D03*
X074549Y041300D03*
X041021Y039725D03*
X041021Y041300D03*
X036957Y039725D03*
X036957Y041300D03*
X032893Y039725D03*
X032893Y041300D03*
G54D84*
X078892Y034671D03*
X077317Y034671D03*
X037109Y032639D03*
X035534Y032639D03*
X037109Y034671D03*
X035534Y034671D03*
X077444Y032639D03*
X079019Y032639D03*
X058318Y032639D03*
X056743Y032639D03*
X048031Y032639D03*
X046456Y032639D03*
X048031Y034671D03*
X046456Y034671D03*
X066776Y034671D03*
X068351Y034671D03*
X056743Y034671D03*
X058318Y034671D03*
X068351Y032639D03*
X066776Y032639D03*
X000000Y000000D02*
M02*
