*
*
G04 PADS 9.4.1 Build Number: 494907 generated Gerber (RS-274-X) file*
G04 PC Version=2.1*
*
%IN "VGA_blz.pcb"*%
*
%MOMM*%
*
%FSDAX33Y33*%
*
*
*
*
G04 PC Standard Apertures*
*
*
G04 Thermal Relief Aperture macro.*
%AMTER*
1,1,$1,0,0*
1,0,$1-$2,0,0*
21,0,$3,$4,0,0,45*
21,0,$3,$4,0,0,135*
%
*
*
G04 Annular Aperture macro.*
%AMANN*
1,1,$1,0,0*
1,0,$2,0,0*
%
*
*
G04 Odd Aperture macro.*
%AMODD*
1,1,$1,0,0*
1,0,$1-0.005,0,0*
%
*
*
G04 PC Custom Aperture Macros*
*
*
*
*
*
*
G04 PC Aperture Table*
*
%ADD010C,0.0254*%
%ADD011C,0.254*%
%ADD023R,1.524X1.524*%
%ADD024C,1.524*%
%ADD057C,0.9*%
%ADD077C,0.35*%
%ADD081C,5*%
*
*
*
*
G04 PC Circuitry*
G04 Layer Name VGA_blz.pcb - circuitry*
%LPD*%
*
*
G04 PC Custom Flashes*
G04 Layer Name VGA_blz.pcb - flashes*
%LPD*%
*
*
G04 PC Circuitry*
G04 Layer Name VGA_blz.pcb - circuitry*
%LPD*%
*
G54D10*
G54D11*
G01X039624Y029083D02*
X040351Y029083D01*
X040605Y028829*
X043976Y028829*
X044738Y029591*
X045139Y029591*
X045139Y029591D02*
X046073Y030126D01*
X046073Y030126D02*
X046101Y030099D01*
X076581Y027559D02*
X077851Y026289D01*
X082423Y026289*
X083439Y027305*
X083439Y033401*
X057531Y031115D02*
X057531Y035940D01*
X059818Y038227*
X076581Y030099D02*
X076581Y036703D01*
X080899Y032036D02*
X081661Y031274D01*
X081661Y030099*
X080899Y032036D02*
X080899Y035213D01*
X080899Y035213D02*
X081153Y035467D01*
X081153Y035467D02*
X081153Y036703D01*
X032759Y032639D02*
X032759Y034671D01*
X043681Y032639D02*
X044958Y033916D01*
X044958Y036703*
X049911Y033401D02*
X049911Y026797D01*
X050419Y026289*
X057531Y026289*
X058801Y027559*
X049911Y033401D02*
X051181Y034671D01*
X051181Y032639D02*
X052451Y031369D01*
X054067Y031369*
X054991Y030445*
X054991Y028829*
X056261Y027559*
X059817Y033655D02*
X059817Y032546D01*
X059817Y032546D02*
X060994Y031369D01*
X060994Y031369D02*
X062611Y031369D01*
X063881Y030099*
X034925Y036703D02*
X036107Y035520D01*
X036107Y035520D02*
X036107Y033996D01*
X036107Y033996D02*
X038148Y031955D01*
X038148Y031955D02*
X039164Y031955D01*
X039164Y031955D02*
X041021Y030099D01*
X032893Y036703D02*
X034671Y034925D01*
X034671Y028829*
X035941Y027559*
X036957Y036703D02*
X038227Y035433D01*
X038227Y033655*
X038989Y036703D02*
X040513Y038227D01*
X041783Y038227*
X042291Y037719*
X042291Y031369*
X043561Y030099*
X041021Y036703D02*
X041021Y035594D01*
X041021Y035594D02*
X041402Y035213D01*
X041402Y035213D02*
X041402Y031623D01*
X061221Y034671D02*
X062237Y033655D01*
X062985Y033655*
X064001Y032639*
X078867Y036703D02*
X078867Y034275D01*
X078867Y034275D02*
X079121Y034021D01*
X079121Y034021D02*
X079121Y030099D01*
X082169Y034671D02*
X083439Y033401D01*
X031750Y038100D02*
X033909Y040259D01*
X039497Y040259*
X043815Y044577*
X047819Y044577*
X050359Y042037*
X064897Y042037*
X031750Y038100D02*
X031750Y035680D01*
X032759Y034671*
X059818Y038227D02*
X061088Y039497D01*
X065189Y039497*
X065189Y039497D02*
X066967Y037719D01*
X066967Y037719D02*
X072009Y037719D01*
X072009Y036703*
X073025Y035687*
X073025Y031877*
X073533Y031369*
X074549Y031369*
X074803Y031115*
X075311Y031115*
X072009Y037719D02*
X072370Y037719D01*
X075164Y040513*
X079495Y040513*
X083185Y044203*
X064897Y042037D02*
X064966Y042037D01*
X064966Y042037D02*
X068522Y045593D01*
X068522Y045593D02*
X075191Y045593D01*
X076581Y044203*
X032893Y044203D02*
X034043Y043053D01*
X041529Y043053*
X043561Y045085*
X053470Y045085*
X055248Y043307*
X036957Y044203D02*
X038347Y045593D01*
X055247Y045593*
X057533Y043307*
X059818Y043307D02*
X062103Y043307D01*
X076581Y044203D02*
X078867Y044203D01*
X081153Y044203*
X025527Y025527D02*
X089535Y025527D01*
X089535Y046101*
X025527Y046101*
X025527Y025527*
G54D23*
X033401Y027559D03*
X062103Y038227D03*
G54D24*
X033401Y030099D03*
X035941Y027559D03*
X035941Y030099D03*
X038481Y027559D03*
X038481Y030099D03*
X041021Y027559D03*
X041021Y030099D03*
X043561Y027559D03*
X043561Y030099D03*
X046101Y027559D03*
X046101Y030099D03*
X048641Y027559D03*
X048641Y030099D03*
X051181Y027559D03*
X051181Y030099D03*
X053721Y027559D03*
X053721Y030099D03*
X056261Y027559D03*
X056261Y030099D03*
X058801Y027559D03*
X058801Y030099D03*
X061341Y027559D03*
X061341Y030099D03*
X063881Y027559D03*
X063881Y030099D03*
X066421Y027559D03*
X066421Y030099D03*
X068961Y027559D03*
X068961Y030099D03*
X071501Y027559D03*
X071501Y030099D03*
X074041Y027559D03*
X074041Y030099D03*
X076581Y027559D03*
X076581Y030099D03*
X079121Y027559D03*
X079121Y030099D03*
X081661Y027559D03*
X081661Y030099D03*
X059818Y038227D03*
X057533Y038227D03*
X055248Y038227D03*
X052963Y038227D03*
X063245Y040767D03*
X060960Y040767D03*
X058675Y040767D03*
X056390Y040767D03*
X054105Y040767D03*
X062103Y043307D03*
X059818Y043307D03*
X057533Y043307D03*
X055248Y043307D03*
X052963Y043307D03*
X036957Y036703D03*
X036957Y044203D03*
X032893Y036703D03*
X032893Y044203D03*
X040259Y034671D03*
X032759Y034671D03*
X076581Y036703D03*
X076581Y044203D03*
X038989Y036703D03*
X038989Y044203D03*
X034925Y036703D03*
X034925Y044203D03*
X083185Y036703D03*
X083185Y044203D03*
X081153Y036703D03*
X081153Y044203D03*
X074549Y032639D03*
X082049Y032639D03*
X061341Y032639D03*
X053841Y032639D03*
X051181Y032639D03*
X043681Y032639D03*
X051181Y034671D03*
X043681Y034671D03*
X063881Y034671D03*
X071381Y034671D03*
X053721Y034671D03*
X061221Y034671D03*
X074549Y036703D03*
X074549Y044203D03*
X071501Y032639D03*
X064001Y032639D03*
X041021Y036703D03*
X041021Y044203D03*
X078867Y036703D03*
X078867Y044203D03*
X082169Y034671D03*
X074669Y034671D03*
X040259Y032639D03*
X032759Y032639D03*
G54D57*
X039624Y029083D03*
X041402Y031623D03*
X057531Y031115D03*
X075311Y031115D03*
X038227Y033655D03*
X059817Y033655D03*
X044958Y036703D03*
X064897Y042037D03*
G54D77*
X037290Y027065D02*
X038066Y026289D01*
X038066Y026289D02*
X042291Y026289D01*
X043561Y027559*
X037290Y027065D02*
X037290Y028908D01*
X038481Y030099*
X043561Y027559D02*
X044831Y028829D01*
X047371Y028829*
X048641Y030099*
X063881Y027559D02*
X065151Y028829D01*
X067691Y028829*
X068961Y030099*
X048641Y030099D02*
X048641Y033905D01*
X052963Y038227*
X056261Y030099D02*
X057531Y028829D01*
X059215Y028829*
X060071Y027973*
X060071Y027144*
X060071Y027144D02*
X060926Y026289D01*
X060926Y026289D02*
X062611Y026289D01*
X063881Y027559*
X068961Y030099D02*
X070231Y028829D01*
X072771Y028829*
X074041Y030099*
X075311Y028829*
X080391Y028829*
X081661Y027559*
X052963Y038227D02*
X055245Y035945D01*
X055245Y031115*
X056261Y030099*
X045298Y040767D02*
X054105Y040767D01*
X054105Y040767D02*
X055375Y039497D01*
X055375Y039497D02*
X057405Y039497D01*
X057405Y039497D02*
X058675Y040767D01*
X058675Y040767D02*
X060960Y040767D01*
X060960Y040767D02*
X063245Y040767D01*
X063245Y040767D02*
X070288Y040767D01*
G54D81*
X070288Y040767D03*
X045298Y040767D03*
X000000Y000000D02*
M02*
